#!OML:ASF H:\Terrain\Patient Classification 1\Terrain2\Thursday\justin.ASF
:FULLY-SPECIFIED
:DEGREES
1741
root 19.7071 18.2225 -16.7258 176.161 8.17395 -170.838
lowerback -0.0801971 0.890562 5.8767
upperback 2.43975 1.35817 4.54866
thorax 2.57766 0.90058 1.43931
lowerneck -12.2708 -2.91315 -7.49656
upperneck 40.7101 2.53701 2.13129
head 16.7823 1.95977 3.27929
rclavicle -8.41729e-016 -3.4191e-014
rhumerus -38.7753 -11.3199 -75.271
rradius 29.0063
rwrist -10.1383
rhand -18.1921 11.8356
rfingers 7.12502
rthumb 8.0849 -17.9897
lclavicle -8.41729e-016 -3.4191e-014
lhumerus -44.0046 10.4136 81.2134
lradius 30.1086
lwrist 1.96905
lhand -15.4065 21.1148
lfingers 7.12502
lthumb 10.7726 50.8186
rfemur 11.3091 -4.54981 27.4462
rtibia 54.2615
rfoot -33.0482 5.3092
rtoes -18.2986
lfemur -14.6932 0.944675 -8.64879
ltibia 22.4071
lfoot 16.321 -7.92048
ltoes -11.2177
1742
root 19.6831 18.1559 -16.8642 176.084 8.38404 -171.185
lowerback 0.0260162 0.948381 5.57746
upperback 2.22409 1.43887 4.42991
thorax 2.29151 0.917437 1.47528
lowerneck -12.1249 -2.82042 -7.22202
upperneck 40.7044 2.68222 1.95311
head 16.7366 2.05225 3.1737
rclavicle -2.56588e-014 1.19271e-015
rhumerus -39.4381 -11.2682 -75.1925
rradius 29.2383
rwrist -10.2355
rhand -18.1004 11.7402
rfingers 7.12502
rthumb 8.17348 -18.0817
lclavicle -2.56588e-014 1.19271e-015
lhumerus -44.0023 10.3959 80.9343
lradius 29.4676
lwrist 1.71068
lhand -15.4524 20.3151
lfingers 7.12502
lthumb 10.7284 50.0212
rfemur 11.3336 -4.5126 26.6249
rtibia 55.3761
rfoot -32.7047 5.89955
rtoes -19.4749
lfemur -13.9333 1.31632 -9.19153
ltibia 22.6661
lfoot 14.0671 -8.71638
ltoes -7.50424
1743
root 19.6636 18.1037 -17.0081 175.796 8.5449 -171.945
lowerback 0.397215 0.974897 4.69404
upperback 1.98242 1.49273 4.28535
thorax 1.8146 0.904929 1.8009
lowerneck -12.0922 -2.7838 -7.25131
upperneck 40.8989 2.79173 2.03102
head 16.8273 2.12202 3.24905
rclavicle 1.01877e-014 2.66371e-014
rhumerus -39.9167 -11.2691 -74.9583
rradius 28.9918
rwrist -10.2997
rhand -18.3065 12.3664
rfingers 7.12502
rthumb 7.97451 -17.4632
lclavicle 1.01877e-014 2.66371e-014
lhumerus -44.2643 10.7473 80.6187
lradius 28.8496
lwrist 1.48231
lhand -15.8263 20.196
lfingers 7.12502
lthumb 10.3677 49.9204
rfemur 11.5319 -4.45205 25.3202
rtibia 56.5001
rfoot -32.4123 6.19586
rtoes -20.3349
lfemur -13.1081 1.58137 -10.2258
ltibia 22.9568
lfoot 11.785 -9.45058
ltoes -6.58008
1744
root 19.645 18.0525 -17.1484 175.526 8.65222 -172.467
lowerback 0.39583 1.01416 4.12289
upperback 2.06833 1.52672 4.17721
thorax 1.89218 0.907116 2.00931
lowerneck -12.1376 -2.75239 -7.38086
upperneck 40.648 2.66671 2.25339
head 16.6981 2.05838 3.32904
rclavicle 1.86858e-014 2.38542e-014
rhumerus -39.8153 -11.6746 -74.6917
rradius 28.5383
rwrist -10.1928
rhand -18.3132 12.9157
rfingers 7.12502
rthumb 7.96803 -16.9141
lclavicle 1.86858e-014 2.38542e-014
lhumerus -44.0827 11.0225 80.5242
lradius 28.4716
lwrist 1.56271
lhand -15.8954 20.2681
lfingers 7.12502
lthumb 10.3011 49.9959
rfemur 11.6927 -4.45133 24.3003
rtibia 57.619
rfoot -31.5715 6.7909
rtoes -19.4624
lfemur -12.3884 2.43847 -11.0753
ltibia 23.314
lfoot 9.03933 -10.0892
ltoes -9.19389
1745
root 19.6258 18.007 -17.281 175.372 8.71701 -172.61
lowerback 0.649926 1.08536 3.999
upperback 1.89438 1.63994 4.13322
thorax 1.56739 0.953482 2.023
lowerneck -11.6809 -2.76656 -7.29145
upperneck 40.2282 2.52417 2.13473
head 16.3664 2.00039 3.19663
rclavicle -1.75055e-014 -1.31198e-014
rhumerus -40.3388 -12.1487 -74.3069
rradius 28.4794
rwrist -9.99877
rhand -18.1447 12.6114
rfingers 7.12502
rthumb 8.13065 -17.2122
lclavicle -1.75055e-014 -1.31198e-014
lhumerus -44.1219 10.9205 80.4892
lradius 28.0484
lwrist 1.60393
lhand -15.4686 20.554
lfingers 7.12502
lthumb 10.7127 50.2608
rfemur 11.6742 -4.49018 23.788
rtibia 58.7208
rfoot -30.1124 7.77911
rtoes -17.6918
lfemur -11.8645 3.58866 -11.5049
ltibia 23.7333
lfoot 6.98623 -10.5958
ltoes -9.34587
1746
root 19.6098 17.9745 -17.4072 175.357 8.75611 -172.351
lowerback 0.967044 1.17827 4.27813
upperback 1.67574 1.80305 4.18224
thorax 1.17006 1.0349 1.90494
lowerneck -11.4742 -2.84049 -7.1815
upperneck 40.0032 2.40229 1.8991
head 16.2093 1.93768 3.03495
rclavicle 1.19395e-014 1.03368e-014
rhumerus -40.8661 -13.0864 -73.697
rradius 28.4057
rwrist -9.43074
rhand -18.1305 12.3337
rfingers 7.12502
rthumb 8.14434 -17.4893
lclavicle 1.19395e-014 1.03368e-014
lhumerus -43.9704 11.0799 80.236
lradius 27.2895
lwrist 1.09623
lhand -14.793 20.6255
lfingers 7.12502
lthumb 11.3644 50.2975
rfemur 11.4153 -4.44968 23.8774
rtibia 59.8777
rfoot -28.4939 8.55315
rtoes -16.4135
lfemur -11.4366 4.31684 -11.4354
ltibia 24.1012
lfoot 5.85268 -10.8411
ltoes -7.6689
1747
root 19.5923 17.9406 -17.53 175.347 8.68453 -172.408
lowerback 1.1104 1.22157 4.21932
upperback 1.55708 1.86961 4.12565
thorax 0.967468 1.06121 1.87229
lowerneck -11.6633 -2.87054 -7.10108
upperneck 39.9911 2.30798 1.90987
head 16.2535 1.90232 3.01199
rclavicle 1.09953e-014 -7.55382e-015
rhumerus -41.1494 -14.1412 -73.1232
rradius 28.2014
rwrist -8.82098
rhand -18.0913 12.213
rfingers 7.12502
rthumb 8.1822 -17.6085
lclavicle 1.09953e-014 -7.55382e-015
lhumerus -43.6062 11.5799 79.7829
lradius 26.4174
lwrist 0.5802
lhand -14.8126 20.3715
lfingers 7.12502
lthumb 11.3455 50.0446
rfemur 11.122 -4.35561 23.5565
rtibia 61.1501
rfoot -26.849 9.37562
rtoes -15.0099
lfemur -11.0664 4.54472 -11.7702
ltibia 24.3953
lfoot 4.54829 -10.3522
ltoes -7.7369
1748
root 19.5667 17.9047 -17.6448 175.388 8.34211 -173.05
lowerback 1.15317 1.15155 3.58795
upperback 1.36614 1.75184 3.89158
thorax 0.736455 0.979283 1.97749
lowerneck -11.8394 -2.83636 -6.90807
upperneck 40.0213 2.29991 1.90328
head 16.3112 1.92023 2.97782
rclavicle -2.78795e-014 -4.85035e-014
rhumerus -41.4427 -14.8419 -72.7395
rradius 27.993
rwrist -8.50842
rhand -18.1366 12.0661
rfingers 7.12502
rthumb 8.13849 -17.7572
lclavicle -2.78795e-014 -4.85035e-014
lhumerus -43.404 12.3502 79.147
lradius 25.6753
lwrist -0.0041008
lhand -15.0466 20.5203
lfingers 7.12502
lthumb 11.1198 50.2056
rfemur 10.6641 -4.46812 22.418
rtibia 62.5427
rfoot -25.139 10.3146
rtoes -14.7635
lfemur -10.9627 4.15278 -12.8602
ltibia 24.6894
lfoot 3.03588 -9.27424
ltoes -6.62044
1749
root 19.5418 17.8818 -17.7495 175.537 7.98746 -173.567
lowerback 1.18509 1.01951 3.01356
upperback 1.15843 1.56022 3.75862
thorax 0.495745 0.866926 2.15743
lowerneck -11.9601 -2.78313 -6.74094
upperneck 39.9954 2.4116 1.65788
head 16.3269 1.95043 2.85756
rclavicle -2.50096e-014 -1.63003e-014
rhumerus -41.5976 -15.5074 -72.2985
rradius 27.7245
rwrist -8.28995
rhand -18.3499 12.4312
rfingers 7.12502
rthumb 7.93263 -17.4
lclavicle -2.50096e-014 -1.63003e-014
lhumerus -43.2548 13.5204 78.3773
lradius 24.8758
lwrist -0.991757
lhand -14.7509 20.9046
lfingers 7.12502
lthumb 11.405 50.5744
rfemur 9.86447 -4.57737 21.4973
rtibia 64.004
rfoot -23.3626 11.1981
rtoes -14.6708
lfemur -11.0057 3.65191 -13.7564
ltibia 24.9482
lfoot 1.96654 -8.30254
ltoes -2.30838
1750
root 19.5226 17.8531 -17.8535 175.526 7.90022 -173.825
lowerback 1.35602 1.0001 2.70843
upperback 1.04797 1.53581 3.70611
thorax 0.280663 0.847298 2.26825
lowerneck -11.9984 -2.73999 -6.83773
upperneck 39.9072 2.44159 1.72565
head 16.2852 1.94993 2.90335
rclavicle 6.5102e-015 3.65764e-014
rhumerus -41.7965 -16.3072 -71.7875
rradius 27.4813
rwrist -8.25097
rhand -18.6476 12.789
rfingers 7.12502
rthumb 7.64527 -17.0528
lclavicle 6.5102e-015 3.65764e-014
lhumerus -42.9663 14.718 77.5915
lradius 23.888
lwrist -2.07987
lhand -14.4787 21.0956
lfingers 7.12502
lthumb 11.6675 50.7507
rfemur 9.27611 -4.37852 20.9604
rtibia 65.4219
rfoot -21.3704 12.1432
rtoes -12.0569
lfemur -10.7499 3.60166 -14.2234
ltibia 25.1419
lfoot 1.2733 -7.65792
ltoes 4.29198
1751
root 19.5053 17.818 -17.9664 175.348 7.88057 -173.835
lowerback 1.69141 1.03456 2.7128
upperback 0.966288 1.60164 3.688
thorax 0.00816173 0.878179 2.23708
lowerneck -12.0524 -2.75343 -6.99546
upperneck 39.8702 2.34012 1.98384
head 16.2769 1.91459 3.02657
rclavicle -1.90958e-014 7.95139e-015
rhumerus -42.2617 -17.114 -71.2653
rradius 27.4704
rwrist -8.37303
rhand -18.8796 12.6293
rfingers 7.12502
rthumb 7.42135 -17.2205
lclavicle -1.90958e-014 7.95139e-015
lhumerus -42.8596 15.5758 76.9298
lradius 23.3221
lwrist -2.63666
lhand -14.6809 21.1546
lfingers 7.12502
lthumb 11.4725 50.8207
rfemur 8.97469 -4.08044 20.7373
rtibia 66.8253
rfoot -19.2118 13.1544
rtoes -9.08075
lfemur -10.2243 3.62597 -14.3585
ltibia 25.4106
lfoot 0.334024 -7.53764
ltoes 7.94285
1752
root 19.4871 17.7991 -18.081 175.157 7.78018 -173.72
lowerback 1.98241 1.00386 2.84695
upperback 0.950678 1.58364 3.70239
thorax -0.167592 0.870522 2.17021
lowerneck -12.2479 -2.78505 -7.01017
upperneck 39.8572 2.24419 2.04473
head 16.3218 1.8677 3.0413
rclavicle -5.11871e-015 3.45885e-014
rhumerus -42.6857 -17.7291 -70.8851
rradius 27.7538
rwrist -8.53372
rhand -18.7108 12.3188
rfingers 7.12502
rthumb 7.58433 -17.5252
lclavicle -5.11871e-015 3.45885e-014
lhumerus -42.7954 16.2181 76.4787
lradius 23.0985
lwrist -2.61022
lhand -15.28 21.2371
lfingers 7.12502
lthumb 10.8947 50.9345
rfemur 8.57612 -3.84619 20.676
rtibia 68.2461
rfoot -16.9648 14.1398
rtoes -7.06578
lfemur -9.7148 3.43468 -14.3538
ltibia 25.7405
lfoot -0.717994 -7.75079
ltoes 7.10367
1753
root 19.466 17.7852 -18.1783 175.17 7.71696 -173.615
lowerback 2.17813 0.977413 3.01799
upperback 0.889313 1.56502 3.66835
thorax -0.334592 0.860353 2.03456
lowerneck -12.3539 -2.74047 -6.852
upperneck 39.688 2.19791 2.0194
head 16.258 1.85059 2.98187
rclavicle 2.65253e-014 1.19271e-014
rhumerus -42.9831 -18.2394 -70.655
rradius 27.9008
rwrist -8.71835
rhand -18.4269 12.3006
rfingers 7.12502
rthumb 7.85829 -17.5334
lclavicle 2.65253e-014 1.19271e-014
lhumerus -42.6766 16.7597 76.0586
lradius 22.9561
lwrist -2.61703
lhand -15.3102 21.978
lfingers 7.12502
lthumb 10.8655 51.6769
rfemur 7.77855 -3.6828 20.5883
rtibia 69.7273
rfoot -15.1212 14.7082
rtoes -6.31316
lfemur -9.47653 3.22784 -14.3453
ltibia 25.9625
lfoot -1.55101 -8.11543
ltoes 3.81253
